<?xml version="1.0" standalone="no"?>
<!DOCTYPE svg PUBLIC "-//W3C//DTD SVG 20010904//EN"
 "http://www.w3.org/TR/2001/REC-SVG-20010904/DTD/svg10.dtd">
<svg version="1.0" xmlns="http://www.w3.org/2000/svg"
 width="512.000000pt" height="512.000000pt" viewBox="0 0 512.000000 512.000000"
 preserveAspectRatio="xMidYMid meet">

<g transform="translate(0.000000,512.000000) scale(0.100000,-0.100000)"
fill="#055787" stroke="none">
<path d="M3410 5113 c-531 -52 -1002 -371 -1244 -843 -166 -322 -217 -722
-136 -1058 l19 -77 -1009 -1010 c-608 -609 -1014 -1022 -1020 -1040 -13 -35
-27 -887 -16 -949 10 -52 67 -113 120 -127 29 -8 169 -9 491 -4 l450 7 42 24
c27 16 48 38 62 67 19 40 21 61 21 255 l0 212 213 0 c204 0 216 1 258 23 78
42 83 59 89 317 l5 225 225 5 c251 6 263 9 310 78 24 35 25 41 28 259 l3 223
210 0 c166 0 217 3 247 15 22 10 100 79 197 175 l161 160 34 -10 c143 -41 407
-60 566 -41 196 24 356 74 531 166 145 75 250 153 373 275 424 424 583 1042
408 1589 -147 459 -516 840 -968 999 -209 73 -464 106 -670 85z m688 -848 c78
-39 128 -88 169 -167 24 -46 28 -64 28 -143 0 -74 -4 -98 -23 -137 -37 -74
-96 -134 -170 -170 -127 -63 -266 -39 -376 62 -27 25 -60 70 -79 109 -28 58
-32 75 -32 146 1 92 21 145 86 219 72 81 146 115 255 116 62 0 80 -5 142 -35z"/>
</g>
</svg>
