<?xml version="1.0" standalone="no"?>
<!DOCTYPE svg PUBLIC "-//W3C//DTD SVG 20010904//EN"
 "http://www.w3.org/TR/2001/REC-SVG-20010904/DTD/svg10.dtd">
<svg version="1.0" xmlns="http://www.w3.org/2000/svg"
 width="512.000000pt" height="512.000000pt" viewBox="0 0 512.000000 512.000000"
 preserveAspectRatio="xMidYMid meet">

<g transform="translate(0.000000,512.000000) scale(0.100000,-0.100000)"
fill="#055787" stroke="none">
<path d="M1550 4639 c-542 -264 -1000 -487 -1018 -496 -60 -29 -63 -44 -63
-336 0 -571 82 -1094 253 -1617 133 -409 357 -848 586 -1152 177 -235 404
-470 617 -642 204 -163 577 -396 635 -396 55 0 395 209 610 376 233 181 538
507 722 774 340 494 580 1121 692 1810 50 312 66 517 66 853 0 208 -3 263 -15
286 -11 23 -46 44 -157 98 -1522 742 -1899 923 -1919 923 -13 -1 -467 -217
-1009 -481z m1195 -770 c360 -48 702 -300 875 -646 150 -300 160 -675 26 -984
-111 -258 -344 -498 -590 -608 -461 -207 -976 -115 -1327 238 -142 142 -229
281 -289 459 -197 588 98 1233 672 1467 202 82 396 105 633 74z"/>
<path d="M3040 3230 c-14 -6 -172 -158 -352 -338 l-328 -326 -117 115 c-131
129 -161 149 -228 149 -90 0 -163 -61 -173 -145 -10 -97 -6 -103 206 -318 109
-109 210 -206 227 -214 39 -21 122 -21 160 -1 17 9 211 198 432 420 356 357
403 408 413 446 29 111 -44 213 -158 219 -32 1 -68 -2 -82 -7z"/>
</g>
</svg>
