<?xml version="1.0" standalone="no"?>
<!DOCTYPE svg PUBLIC "-//W3C//DTD SVG 20010904//EN"
 "http://www.w3.org/TR/2001/REC-SVG-20010904/DTD/svg10.dtd">
<svg version="1.0" xmlns="http://www.w3.org/2000/svg"
 width="512.000000pt" height="512.000000pt" viewBox="0 0 512.000000 512.000000"
 preserveAspectRatio="xMidYMid meet">

<g transform="translate(0.000000,512.000000) scale(0.100000,-0.100000)"
fill="#0F88D0" stroke="none">
<path d="M1463 3845 c-62 -27 -63 -35 -63 -435 0 -406 1 -414 67 -445 46 -22
103 -7 132 34 19 26 21 46 23 264 l3 235 493 -436 493 -436 -488 -488 c-268
-268 -491 -488 -495 -488 -5 0 -8 171 -8 381 l0 381 -34 34 c-39 39 -77 44
-127 18 -41 -21 -59 -68 -59 -154 l0 -70 -272 0 c-150 0 -290 -3 -311 -7 -23
-3 -50 -18 -68 -35 -56 -57 -29 -156 49 -178 21 -6 157 -10 320 -10 l282 0 0
-326 c0 -269 3 -332 15 -358 31 -66 -117 -61 1825 -64 1262 -2 1776 0 1803 8
25 7 45 22 57 43 19 31 20 60 20 1240 0 1310 2 1251 -52 1287 -33 22 -3555 27
-3605 5z m3435 -1202 c1 -546 -1 -993 -5 -993 -12 0 -963 954 -962 965 0 5
158 143 350 305 193 162 364 310 380 328 22 24 29 43 29 72 0 83 -95 136 -165
92 -16 -11 -306 -254 -644 -541 -338 -287 -618 -520 -622 -519 -10 4 -1424
1255 -1440 1274 -10 12 211 14 1532 12 l1544 -3 3 -992z m-1908 -354 c225
-199 225 -199 269 -199 46 0 44 -1 290 208 l204 174 489 -489 c268 -268 488
-491 488 -495 0 -5 -661 -8 -1470 -8 -808 0 -1470 3 -1470 7 0 5 221 229 492
500 485 485 493 492 513 474 11 -10 99 -87 195 -172z"/>
<path d="M263 3416 c-83 -37 -87 -153 -6 -197 21 -11 107 -14 472 -14 416 0
449 1 475 18 35 23 58 76 50 116 -3 16 -19 42 -36 58 l-29 28 -447 2 c-365 2
-453 0 -479 -11z"/>
<path d="M86 2810 c-69 -21 -101 -90 -72 -152 32 -67 -37 -63 1021 -66 1079
-3 1010 -7 1049 71 16 34 17 42 5 74 -8 20 -27 45 -42 57 -28 21 -29 21 -980
23 -524 1 -965 -2 -981 -7z"/>
<path d="M83 1763 c-32 -6 -72 -51 -79 -88 -7 -41 11 -81 49 -109 28 -20 40
-21 446 -24 452 -3 477 -1 514 49 25 34 25 94 0 128 -36 48 -58 50 -498 49
-226 0 -420 -3 -432 -5z"/>
</g>
</svg>
