<?xml version="1.0" standalone="no"?>
<!DOCTYPE svg PUBLIC "-//W3C//DTD SVG 20010904//EN"
 "http://www.w3.org/TR/2001/REC-SVG-20010904/DTD/svg10.dtd">
<svg version="1.0" xmlns="http://www.w3.org/2000/svg"
 width="512.000000pt" height="512.000000pt" viewBox="0 0 512.000000 512.000000"
 preserveAspectRatio="xMidYMid meet">

<g transform="translate(0.000000,512.000000) scale(0.100000,-0.100000)"
fill="#0F88D0" stroke="none">
<path d="M2367 5105 c-514 -71 -958 -437 -1125 -930 -68 -201 -81 -335 -82
-852 l0 -352 -171 -3 -171 -3 -29 -33 -29 -32 0 -1415 0 -1415 29 -32 29 -33
1742 0 1742 0 29 33 29 32 0 1415 0 1415 -29 32 -29 33 -171 3 -171 3 0 352
c-1 385 -10 560 -35 682 -148 718 -829 1199 -1558 1100z m392 -770 c204 -65
367 -239 421 -451 18 -71 20 -111 20 -496 l0 -418 -640 0 -640 0 0 418 c0 385
2 425 20 496 63 246 263 430 518 476 77 14 211 3 301 -25z m-75 -2585 c122
-46 209 -171 210 -304 0 -98 -16 -143 -79 -227 l-55 -72 0 -206 c0 -113 -5
-223 -10 -243 -41 -147 -244 -187 -343 -68 -41 48 -47 90 -47 311 l0 206 -55
72 c-63 84 -79 129 -79 227 1 131 87 257 207 303 71 27 179 28 251 1z"/>
</g>
</svg>
