<?xml version="1.0" standalone="no"?>
<!DOCTYPE svg PUBLIC "-//W3C//DTD SVG 20010904//EN"
 "http://www.w3.org/TR/2001/REC-SVG-20010904/DTD/svg10.dtd">
<svg version="1.0" xmlns="http://www.w3.org/2000/svg"
 width="344.000000pt" height="344.000000pt" viewBox="0 0 344.000000 344.000000"
 preserveAspectRatio="xMidYMid meet">

<g transform="translate(0.000000,344.000000) scale(0.100000,-0.100000)"
fill="#fff" stroke="none">
<path d="M1632 2869 c-316 -47 -552 -337 -528 -650 13 -158 71 -285 186 -399
111 -112 237 -168 395 -177 182 -10 337 48 465 177 193 193 241 464 125 705
-117 241 -381 383 -643 344z m231 -179 c207 -64 343 -287 307 -503 -42 -248
-279 -420 -519 -379 -198 34 -348 184 -381 382 -36 211 94 427 299 497 87 30
204 31 294 3z"/>
<path d="M1485 1400 c-303 -62 -565 -227 -747 -470 -79 -106 -102 -153 -91
-187 14 -41 54 -67 92 -58 25 5 42 23 89 93 165 248 414 412 711 468 157 30
387 10 542 -46 86 -31 155 59 97 124 -72 79 -466 122 -693 76z"/>
<path d="M2582 1110 c-101 -27 -165 -64 -242 -140 -340 -337 -103 -913 375
-913 227 0 431 144 506 358 67 190 15 410 -130 554 -78 78 -142 114 -247 141
-96 25 -167 25 -262 0z m181 -270 c23 -18 26 -29 29 -93 l3 -72 70 -3 c55 -2
75 -8 92 -24 32 -30 31 -81 -2 -113 -21 -22 -33 -25 -95 -25 l-70 0 0 -73 c0
-82 -12 -102 -67 -113 -23 -4 -36 0 -58 19 -26 22 -30 32 -33 96 l-4 71 -63 0
c-48 0 -68 5 -89 21 -34 27 -36 82 -4 116 18 20 31 23 89 23 l67 0 4 71 c3 63
7 74 31 95 34 29 66 30 100 4z"/>
</g>
</svg>
