<?xml version="1.0" standalone="no"?>
<!DOCTYPE svg PUBLIC "-//W3C//DTD SVG 20010904//EN"
 "http://www.w3.org/TR/2001/REC-SVG-20010904/DTD/svg10.dtd">
<svg version="1.0" xmlns="http://www.w3.org/2000/svg"
 width="512.000000pt" height="512.000000pt" viewBox="0 0 512.000000 512.000000"
 preserveAspectRatio="xMidYMid meet">

<g transform="translate(0.000000,512.000000) scale(0.100000,-0.100000)"
fill="#000" stroke="none">
<path d="M3483 5106 c-135 -33 -88 10 -1250 -1144 -639 -634 -1097 -1097
-1119 -1129 -60 -91 -78 -153 -78 -273 0 -121 18 -178 85 -280 55 -81 2161
-2174 2226 -2213 190 -110 421 -79 578 78 154 154 189 386 88 579 -20 38 -238
263 -884 911 -670 673 -858 867 -864 891 -3 18 -1 45 7 63 8 18 369 388 874
894 801 801 864 867 892 927 72 156 69 305 -11 454 -100 189 -334 293 -544
242z"/>
</g>
</svg>
