<?xml version="1.0" standalone="no"?>
<!DOCTYPE svg PUBLIC "-//W3C//DTD SVG 20010904//EN"
 "http://www.w3.org/TR/2001/REC-SVG-20010904/DTD/svg10.dtd">
<svg version="1.0" xmlns="http://www.w3.org/2000/svg"
 width="344.000000pt" height="344.000000pt" viewBox="0 0 344.000000 344.000000"
 preserveAspectRatio="xMidYMid meet">

<g transform="translate(0.000000,344.000000) scale(0.100000,-0.100000)"
fill="#fff" stroke="none">
<path d="M1449 3145 c-676 -110 -1193 -571 -1293 -1155 -69 -402 78 -824 389
-1118 47 -45 114 -102 149 -127 l63 -45 -9 -52 c-20 -112 -85 -250 -190 -407
l-69 -104 148 6 c94 3 172 11 213 22 151 41 290 117 423 229 l67 57 98 -15
c452 -69 900 28 1264 275 120 82 305 267 380 379 159 240 226 475 215 749 -25
622 -512 1137 -1222 1291 -130 28 -492 37 -626 15z m-332 -1251 c83 -63 58
-201 -43 -234 -90 -30 -177 36 -176 133 2 112 127 170 219 101z m674 10 c62
-31 85 -134 43 -191 -65 -88 -189 -78 -237 20 -36 71 1 155 78 182 42 14 72
11 116 -11z m690 -2 c78 -45 81 -176 4 -226 -108 -71 -246 34 -206 157 28 85
121 117 202 69z"/>
</g>
</svg>
