<?xml version="1.0" standalone="no"?>
<!DOCTYPE svg PUBLIC "-//W3C//DTD SVG 20010904//EN"
 "http://www.w3.org/TR/2001/REC-SVG-20010904/DTD/svg10.dtd">
<svg version="1.0" xmlns="http://www.w3.org/2000/svg"
 width="512.000000pt" height="512.000000pt" viewBox="0 0 512.000000 512.000000"
 preserveAspectRatio="xMidYMid meet">

<g transform="translate(0.000000,512.000000) scale(0.100000,-0.100000)"
fill="#fff" stroke="none">
<path d="M1415 4536 c-479 -80 -818 -522 -792 -1030 14 -269 116 -496 306
-679 455 -439 1161 -303 1455 280 206 410 92 946 -261 1233 -204 165 -463 237
-708 196z"/>
<path d="M3577 4399 c-217 -29 -424 -162 -551 -353 -278 -418 -147 -999 279
-1237 201 -112 447 -130 655 -46 131 53 267 159 349 272 144 197 201 446 155
685 -83 437 -471 734 -887 679z"/>
<path d="M3518 2540 c-171 -15 -353 -67 -504 -143 -75 -38 -227 -138 -282
-186 l-33 -28 68 -55 c80 -64 217 -213 290 -313 176 -243 284 -505 328 -800 8
-55 15 -115 15 -132 l0 -33 861 0 862 0 -6 238 c-7 323 -33 441 -142 667 -201
416 -585 699 -1050 774 -91 15 -298 20 -407 11z"/>
<path d="M1383 2250 c-516 -43 -976 -349 -1211 -808 -121 -236 -172 -457 -172
-752 l0 -120 1555 0 1555 0 0 93 c0 490 -155 871 -479 1180 -330 314 -743 448
-1248 407z"/>
</g>
</svg>
