<?xml version="1.0" standalone="no"?>
<!DOCTYPE svg PUBLIC "-//W3C//DTD SVG 20010904//EN"
 "http://www.w3.org/TR/2001/REC-SVG-20010904/DTD/svg10.dtd">
<svg version="1.0" xmlns="http://www.w3.org/2000/svg"
 width="512.000000pt" height="512.000000pt" viewBox="0 0 512.000000 512.000000"
 preserveAspectRatio="xMidYMid meet">

<g transform="translate(0.000000,512.000000) scale(0.100000,-0.100000)"
fill="#fff" stroke="none">
<path d="M4575 4466 c-16 -8 -906 -891 -1977 -1963 -1742 -1743 -1947 -1952
-1953 -1985 -22 -120 69 -212 189 -193 38 7 71 37 442 407 l402 400 103 -37
c269 -95 469 -129 774 -129 247 -1 358 13 579 68 651 165 1267 635 1717 1309
99 149 117 191 105 249 -14 73 -210 391 -342 558 -71 89 -350 374 -419 428
l-40 31 317 318 c274 276 317 323 323 356 25 132 -101 237 -220 183z m-1096
-1633 c84 -282 33 -570 -147 -823 -205 -288 -579 -452 -912 -400 -78 12 -200
48 -200 58 0 4 56 63 125 132 l125 125 72 -3 c358 -15 671 298 656 656 l-3 72
125 125 c69 69 128 125 132 125 4 0 16 -30 27 -67z"/>
<path d="M2375 4154 c-456 -48 -846 -194 -1220 -457 -344 -243 -637 -547 -886
-920 -100 -150 -116 -190 -105 -251 8 -42 175 -294 292 -441 111 -139 407
-436 543 -544 l104 -83 309 309 c169 169 308 313 308 319 0 6 -14 39 -31 75
-58 118 -82 236 -83 394 0 174 23 275 94 421 100 207 253 356 465 455 131 62
235 83 400 83 158 -1 276 -25 394 -83 36 -17 69 -31 75 -31 6 0 135 124 286
275 l274 274 -50 21 c-155 67 -407 135 -616 166 -99 14 -469 27 -553 18z"/>
<path d="M2420 3185 c-299 -67 -514 -351 -497 -655 4 -82 31 -200 45 -200 9 0
822 813 822 822 0 4 -26 14 -57 24 -79 23 -231 27 -313 9z"/>
</g>
</svg>
