<?xml version="1.0" standalone="no"?>
<!DOCTYPE svg PUBLIC "-//W3C//DTD SVG 20010904//EN"
 "http://www.w3.org/TR/2001/REC-SVG-20010904/DTD/svg10.dtd">
<svg version="1.0" xmlns="http://www.w3.org/2000/svg"
 width="344.000000pt" height="344.000000pt" viewBox="0 0 344.000000 344.000000"
 preserveAspectRatio="xMidYMid meet">

<g transform="translate(0.000000,344.000000) scale(0.100000,-0.100000)"
fill="#fff" stroke="none">
<path d="M335 2711 c201 -195 1272 -1184 1297 -1197 44 -24 133 -23 176 0 27
14 1084 990 1287 1187 l50 49 -1425 0 -1425 0 40 -39z"/>
<path d="M110 1731 c0 -479 3 -871 8 -871 4 0 209 202 455 448 l448 449 -432
404 c-238 222 -443 412 -456 422 l-23 18 0 -870z"/>
<path d="M2915 2220 c-225 -211 -411 -386 -412 -389 -2 -3 70 -6 160 -7 146
-1 171 -4 252 -28 115 -34 251 -102 338 -167 37 -28 70 -49 73 -47 2 3 3 233
2 512 l-3 508 -410 -382z"/>
<path d="M2553 1599 c-328 -31 -610 -277 -694 -604 -27 -108 -28 -280 0 -385
120 -466 605 -723 1054 -560 105 39 187 90 275 174 174 165 264 392 249 625
-7 116 -29 197 -82 306 -147 304 -460 477 -802 444z m166 -373 c25 -26 26 -31
29 -166 l4 -140 119 0 c132 0 177 -12 204 -54 21 -31 23 -87 6 -119 -25 -48
-58 -57 -200 -57 l-131 0 0 -131 c0 -142 -9 -175 -57 -200 -32 -17 -88 -15
-119 6 -42 27 -54 72 -54 204 l0 119 -140 4 c-135 3 -140 4 -166 29 -33 33
-42 94 -21 136 26 50 68 63 206 63 l121 0 0 121 c0 134 11 172 58 202 39 25
106 17 141 -17z"/>
<path d="M729 1144 l-454 -454 666 0 667 0 5 148 c5 157 24 249 72 359 14 31
23 58 20 61 -2 3 -28 9 -57 13 -97 15 -182 68 -313 194 -66 63 -127 119 -136
124 -12 8 -108 -83 -470 -445z"/>
</g>
</svg>
