<?xml version="1.0" standalone="no"?>
<!DOCTYPE svg PUBLIC "-//W3C//DTD SVG 20010904//EN"
 "http://www.w3.org/TR/2001/REC-SVG-20010904/DTD/svg10.dtd">
<svg version="1.0" xmlns="http://www.w3.org/2000/svg"
 width="344.000000pt" height="344.000000pt" viewBox="0 0 344.000000 344.000000"
 preserveAspectRatio="xMidYMid meet">

<g transform="translate(0.000000,344.000000) scale(0.100000,-0.100000)"
fill="#fff" stroke="none">
<path d="M875 2899 c-31 -17 -315 -301 -331 -331 -17 -32 -18 -91 -3 -121 6
-12 169 -181 362 -374 l352 -353 -352 -352 c-193 -194 -356 -363 -362 -375
-15 -30 -14 -89 3 -121 17 -32 302 -315 333 -331 28 -14 88 -14 116 0 12 6
181 169 374 362 l353 352 347 -346 c192 -191 359 -354 373 -363 30 -20 92 -21
128 -2 32 17 315 302 331 333 16 32 13 95 -5 123 -9 14 -172 181 -363 373
l-346 347 352 353 c193 193 356 362 362 374 14 28 14 88 0 116 -16 31 -299
316 -331 333 -36 19 -98 18 -128 -2 -14 -9 -181 -172 -373 -363 l-347 -346
-353 352 c-193 193 -362 356 -374 362 -28 14 -92 14 -118 0z"/>
</g>
</svg>
