<?xml version="1.0" standalone="no"?>
<!DOCTYPE svg PUBLIC "-//W3C//DTD SVG 20010904//EN"
 "http://www.w3.org/TR/2001/REC-SVG-20010904/DTD/svg10.dtd">
<svg version="1.0" xmlns="http://www.w3.org/2000/svg"
 width="512.000000pt" height="512.000000pt" viewBox="0 0 512.000000 512.000000"
 preserveAspectRatio="xMidYMid meet">

<g transform="translate(0.000000,512.000000) scale(0.100000,-0.100000)"
fill="#fff" stroke="none">
<path d="M1365 4672 c-120 -42 -205 -117 -258 -230 l-32 -67 -3 -1974 c-2
-1586 0 -1972 10 -1964 7 6 343 238 746 517 l733 507 677 -469 c372 -258 707
-490 745 -516 l67 -48 -2 1974 -3 1973 -32 67 c-44 94 -109 160 -202 206 l-75
37 -1160 2 c-1081 2 -1164 1 -1211 -15z m1405 -1152 l0 -320 320 0 320 0 0
-215 0 -215 -320 0 -320 0 0 -320 0 -320 -210 0 -210 0 0 320 0 320 -320 0
-320 0 0 215 0 215 320 0 320 0 0 320 0 320 210 0 210 0 0 -320z"/>
</g>
</svg>
