<?xml version="1.0" standalone="no"?>
<!DOCTYPE svg PUBLIC "-//W3C//DTD SVG 20010904//EN"
 "http://www.w3.org/TR/2001/REC-SVG-20010904/DTD/svg10.dtd">
<svg version="1.0" xmlns="http://www.w3.org/2000/svg"
 width="512.000000pt" height="512.000000pt" viewBox="0 0 512.000000 512.000000"
 preserveAspectRatio="xMidYMid meet">

<g transform="translate(0.000000,512.000000) scale(0.100000,-0.100000)"
fill="#fff" stroke="none">
<path d="M1950 4684 c-14 -2 -56 -9 -95 -15 -608 -93 -1142 -549 -1339 -1140
-67 -204 -80 -287 -81 -534 0 -190 3 -235 23 -332 190 -937 1092 -1538 2022
-1347 197 41 432 141 601 256 l97 66 583 -584 c407 -407 597 -591 627 -605 61
-30 155 -24 208 14 59 41 87 89 92 157 8 111 33 82 -613 730 l-593 595 60 85
c74 105 176 313 216 440 228 720 -37 1487 -663 1926 -105 73 -307 173 -432
213 -179 57 -278 72 -493 76 -107 2 -206 2 -220 -1z m413 -439 c241 -42 468
-159 651 -335 207 -199 335 -440 381 -719 23 -137 16 -367 -14 -491 -120 -485
-475 -840 -961 -961 -124 -30 -354 -37 -491 -14 -258 43 -488 158 -677 339
-644 615 -483 1668 317 2070 125 64 311 116 461 130 71 6 244 -3 333 -19z"/>
</g>
</svg>
