<?xml version="1.0" standalone="no"?>
<!DOCTYPE svg PUBLIC "-//W3C//DTD SVG 20010904//EN"
 "http://www.w3.org/TR/2001/REC-SVG-20010904/DTD/svg10.dtd">
<svg version="1.0" xmlns="http://www.w3.org/2000/svg"
 width="512.000000pt" height="512.000000pt" viewBox="0 0 512.000000 512.000000"
 preserveAspectRatio="xMidYMid meet">

<g transform="translate(0.000000,512.000000) scale(0.100000,-0.100000)"
fill="#0f88d0" stroke="none">
<path d="M155 4930 c-74 -12 -126 -58 -145 -129 -25 -93 -61 -39 796 -1182
l794 -1059 -794 -1059 c-865 -1153 -823 -1091 -797 -1188 13 -47 75 -109 118
-119 16 -3 34 -8 42 -10 7 -2 32 1 54 7 40 11 4666 2142 4782 2202 34 18 69
46 81 65 49 73 38 173 -25 231 -27 25 -645 314 -2426 1136 -1314 606 -2401
1104 -2415 1107 -14 3 -43 2 -65 -2z"/>
</g>
</svg>
