<?xml version="1.0" standalone="no"?>
<!DOCTYPE svg PUBLIC "-//W3C//DTD SVG 20010904//EN"
 "http://www.w3.org/TR/2001/REC-SVG-20010904/DTD/svg10.dtd">
<svg version="1.0" xmlns="http://www.w3.org/2000/svg"
 width="512.000000pt" height="512.000000pt" viewBox="0 0 512.000000 512.000000"
 preserveAspectRatio="xMidYMid meet">

<g transform="translate(0.000000,512.000000) scale(0.100000,-0.100000)"
fill="#fff" stroke="none">
<path d="M835 5066 c-217 -50 -387 -184 -480 -377 -64 -133 -67 -163 -63 -650
4 -409 5 -438 25 -502 58 -183 159 -331 299 -436 33 -25 260 -156 502 -291
243 -135 442 -247 442 -250 0 -3 -199 -115 -442 -250 -242 -135 -469 -266
-502 -291 -140 -105 -241 -253 -299 -436 -20 -64 -21 -93 -25 -502 -4 -485 -1
-517 62 -647 85 -176 221 -295 411 -360 69 -24 97 -28 200 -28 203 -2 169 -17
940 429 154 89 798 460 1430 825 633 364 1177 682 1211 706 120 84 208 204
256 349 19 59 23 90 23 205 0 115 -4 146 -23 205 -50 150 -151 283 -275 363
-34 22 -570 334 -1192 692 -1022 590 -1514 874 -1935 1117 -179 103 -267 133
-405 139 -64 2 -122 -1 -160 -10z m195 -477 c45 -16 3229 -1855 3258 -1882 82
-76 82 -218 0 -294 -38 -36 -3229 -1873 -3273 -1885 -83 -22 -186 25 -224 105
-22 44 -22 51 -19 434 l3 388 29 58 c54 107 14 81 841 541 501 279 535 303
569 402 20 61 20 147 0 208 -35 101 -61 119 -659 452 -302 168 -575 321 -606
340 -68 41 -124 100 -153 163 -20 45 -21 59 -21 447 l0 400 27 41 c17 26 45
50 79 67 58 28 98 32 149 15z"/>
</g>
</svg>
