<?xml version="1.0" standalone="no"?>
<!DOCTYPE svg PUBLIC "-//W3C//DTD SVG 20010904//EN"
 "http://www.w3.org/TR/2001/REC-SVG-20010904/DTD/svg10.dtd">
<svg version="1.0" xmlns="http://www.w3.org/2000/svg"
 width="512.000000pt" height="512.000000pt" viewBox="0 0 512.000000 512.000000"
 preserveAspectRatio="xMidYMid meet">

<g transform="translate(0.000000,512.000000) scale(0.100000,-0.100000)"
fill="#fff" stroke="none">
<path d="M1973 5101 c-23 -11 -48 -30 -56 -43 -9 -13 -36 -170 -67 -378 -29
-195 -53 -356 -54 -356 0 -1 -39 -19 -86 -41 -47 -22 -143 -79 -214 -126 -72
-48 -134 -87 -138 -87 -5 0 -150 59 -322 130 -209 87 -326 130 -350 130 -43 0
-82 -18 -112 -52 -38 -40 -534 -921 -534 -947 0 -61 42 -102 325 -316 l276
-210 -6 -55 c-19 -167 -22 -219 -14 -317 4 -59 9 -117 11 -127 2 -14 -65 -74
-266 -237 -148 -120 -277 -231 -288 -246 -39 -61 -36 -68 246 -564 291 -510
287 -506 373 -495 23 3 167 55 320 117 153 61 299 119 325 130 l46 18 44 -33
c54 -41 209 -132 311 -182 51 -26 79 -46 82 -59 3 -11 28 -168 55 -350 31
-203 57 -339 66 -353 34 -51 42 -52 621 -52 505 0 540 1 573 19 64 34 66 41
123 409 l52 343 125 65 c69 37 167 94 219 128 51 33 98 60 105 59 6 -2 146
-57 311 -123 369 -148 363 -146 418 -122 41 18 49 30 307 481 146 255 269 478
274 496 5 17 6 48 2 67 -6 33 -26 49 -317 249 l-310 214 8 75 c10 96 10 364 0
411 l-7 35 275 223 c152 123 282 236 290 252 8 15 15 41 15 57 0 42 -519 951
-557 974 -54 34 -90 25 -433 -112 -179 -71 -329 -130 -334 -130 -4 0 -51 29
-104 64 -53 35 -151 92 -218 126 l-120 64 -49 315 c-26 174 -49 337 -51 362
-3 60 -15 83 -58 103 -30 14 -94 16 -563 16 -497 0 -530 -2 -570 -19z m667
-1661 c359 -44 650 -287 766 -640 26 -78 28 -98 28 -245 1 -137 -2 -171 -22
-238 -64 -222 -209 -413 -407 -538 -22 -14 -78 -42 -125 -62 -438 -185 -950
21 -1155 466 -157 341 -77 741 201 1008 171 163 353 241 604 257 14 1 64 -3
110 -8z"/>
</g>
</svg>
