<?xml version="1.0" standalone="no"?>
<!DOCTYPE svg PUBLIC "-//W3C//DTD SVG 20010904//EN"
 "http://www.w3.org/TR/2001/REC-SVG-20010904/DTD/svg10.dtd">
<svg version="1.0" xmlns="http://www.w3.org/2000/svg"
 width="512.000000pt" height="512.000000pt" viewBox="0 0 512.000000 512.000000"
 preserveAspectRatio="xMidYMid meet">

<g transform="translate(0.000000,512.000000) scale(0.100000,-0.100000)"
fill="#fff" stroke="none">
<path d="M2480 4303 c-698 -20 -1360 -304 -1856 -798 -77 -77 -171 -178 -208
-225 -147 -185 -283 -413 -374 -623 l-41 -97 41 -97 c91 -210 227 -438 374
-623 101 -128 334 -353 469 -456 344 -260 715 -429 1130 -514 329 -68 761 -68
1090 0 534 110 1007 363 1391 745 77 77 171 178 208 225 147 185 283 413 374
623 l41 97 -41 97 c-91 210 -227 438 -374 623 -101 128 -334 353 -469 456
-514 388 -1122 585 -1755 567z m370 -616 c419 -110 723 -414 838 -837 24 -87
26 -112 26 -290 0 -178 -2 -203 -26 -290 -115 -422 -416 -723 -838 -838 -87
-24 -112 -26 -290 -26 -178 0 -203 2 -290 26 -422 115 -723 416 -838 838 -24
87 -26 112 -26 290 0 178 2 203 26 290 123 453 463 769 922 856 48 9 125 12
236 10 136 -3 182 -8 260 -29z"/>
<path d="M2441 3249 c-145 -24 -271 -89 -376 -194 -114 -115 -175 -241 -197
-410 -20 -147 16 -322 94 -453 42 -72 158 -188 230 -230 131 -78 306 -114 453
-94 169 22 295 83 410 197 114 115 175 241 197 410 20 147 -16 322 -94 453
-42 72 -158 188 -230 230 -142 84 -324 118 -487 91z"/>
</g>
</svg>
